<?xml version="1.0" encoding="UTF-8" standalone="no"?>
<!-- Created with Inkscape (http://www.inkscape.org/) -->

<svg
   xmlns:dc="http://purl.org/dc/elements/1.1/"
   xmlns:cc="http://creativecommons.org/ns#"
   xmlns:rdf="http://www.w3.org/1999/02/22-rdf-syntax-ns#"
   xmlns:svg="http://www.w3.org/2000/svg"
   xmlns="http://www.w3.org/2000/svg"
   xmlns:sodipodi="http://sodipodi.sourceforge.net/DTD/sodipodi-0.dtd"
   xmlns:inkscape="http://www.inkscape.org/namespaces/inkscape"
   width="727.84418"
   height="717.62805"
   id="svg4107"
   version="1.1"
   inkscape:version="0.48.5 r10040"
   sodipodi:docname="display_wiring.svg">
  <defs
     id="defs4109">
    <clipPath
       id="clipPath3964"
       clipPathUnits="userSpaceOnUse">
      <rect
         y="345.27289"
         x="4.5798683"
         height="158.26187"
         width="162.26851"
         id="rect3966"
         style="fill:#ffffff" />
    </clipPath>
  </defs>
  <sodipodi:namedview
     id="base"
     pagecolor="#ffffff"
     bordercolor="#666666"
     borderopacity="1.0"
     inkscape:pageopacity="0.0"
     inkscape:pageshadow="2"
     inkscape:zoom="0.66"
     inkscape:cx="179.9299"
     inkscape:cy="253.7058"
     inkscape:document-units="px"
     inkscape:current-layer="layer1"
     showgrid="false"
     inkscape:window-width="1087"
     inkscape:window-height="819"
     inkscape:window-x="229"
     inkscape:window-y="83"
     inkscape:window-maximized="0"
     fit-margin-top="0"
     fit-margin-left="0"
     fit-margin-right="0"
     fit-margin-bottom="0" />
  <metadata
     id="metadata4112">
    <rdf:RDF>
      <cc:Work
         rdf:about="">
        <dc:format>image/svg+xml</dc:format>
        <dc:type
           rdf:resource="http://purl.org/dc/dcmitype/StillImage" />
        <dc:title />
      </cc:Work>
    </rdf:RDF>
  </metadata>
  <g
     inkscape:label="Layer 1"
     inkscape:groupmode="layer"
     id="layer1"
     transform="translate(-8.4427661,-7.8338752)">
    <g
       transform="translate(258.2283,-237.83359)"
       id="layer1-3"
       inkscape:label="Layer 1">
      <rect
         y="245.66747"
         x="120.27764"
         height="717.62805"
         width="357.78101"
         id="rect2989"
         style="fill:#008000" />
      <rect
         ry="37.421982"
         y="268.4838"
         x="340.42139"
         height="679.83264"
         width="110.10663"
         id="rect2995"
         style="fill:#000000" />
      <path
         transform="matrix(1,0,0,-1,3.0304578,603.63809)"
         d="m 383.85797,282.62595 c 0,5.02102 -4.07034,9.09137 -9.09137,9.09137 -5.02102,0 -9.09137,-4.07035 -9.09137,-9.09137 0,-5.02103 4.07035,-9.09138 9.09137,-9.09138 5.02103,0 9.09137,4.07035 9.09137,9.09138 z"
         sodipodi:ry="9.0913725"
         sodipodi:rx="9.0913725"
         sodipodi:cy="282.62595"
         sodipodi:cx="374.7666"
         id="path2999"
         style="fill:#cccccc"
         sodipodi:type="arc" />
      <path
         sodipodi:type="arc"
         style="fill:#ff0000"
         id="path3034"
         sodipodi:cx="374.7666"
         sodipodi:cy="282.62595"
         sodipodi:rx="9.0913725"
         sodipodi:ry="9.0913725"
         d="m 383.85797,282.62595 c 0,5.02102 -4.07034,9.09137 -9.09137,9.09137 -5.02102,0 -9.09137,-4.07035 -9.09137,-9.09137 0,-5.02103 4.07035,-9.09138 9.09137,-9.09138 5.02103,0 9.09137,4.07035 9.09137,9.09138 z"
         transform="matrix(1,0,0,-1,3.0304578,634.10214)" />
      <path
         transform="matrix(1,0,0,-1,3.0304578,725.49429)"
         d="m 383.85797,282.62595 c 0,5.02102 -4.07034,9.09137 -9.09137,9.09137 -5.02102,0 -9.09137,-4.07035 -9.09137,-9.09137 0,-5.02103 4.07035,-9.09138 9.09137,-9.09138 5.02103,0 9.09137,4.07035 9.09137,9.09138 z"
         sodipodi:ry="9.0913725"
         sodipodi:rx="9.0913725"
         sodipodi:cy="282.62595"
         sodipodi:cx="374.7666"
         id="path3036"
         style="fill:#4d4d4d"
         sodipodi:type="arc" />
      <path
         sodipodi:type="arc"
         style="fill:#ffff00"
         id="path3038"
         sodipodi:cx="374.7666"
         sodipodi:cy="282.62595"
         sodipodi:rx="9.0913725"
         sodipodi:ry="9.0913725"
         d="m 383.85797,282.62595 c 0,5.02102 -4.07034,9.09137 -9.09137,9.09137 -5.02102,0 -9.09137,-4.07035 -9.09137,-9.09137 0,-5.02103 4.07035,-9.09138 9.09137,-9.09138 5.02103,0 9.09137,4.07035 9.09137,9.09138 z"
         transform="matrix(1,0,0,-1,3.0304578,695.03024)" />
      <path
         transform="matrix(1,0,0,-1,3.0304578,664.56619)"
         d="m 383.85797,282.62595 c 0,5.02102 -4.07034,9.09137 -9.09137,9.09137 -5.02102,0 -9.09137,-4.07035 -9.09137,-9.09137 0,-5.02103 4.07035,-9.09138 9.09137,-9.09138 5.02103,0 9.09137,4.07035 9.09137,9.09138 z"
         sodipodi:ry="9.0913725"
         sodipodi:rx="9.0913725"
         sodipodi:cy="282.62595"
         sodipodi:cx="374.7666"
         id="path3040"
         style="fill:#0000ff"
         sodipodi:type="arc" />
      <path
         sodipodi:type="arc"
         style="fill:#ffff00"
         id="path3042"
         sodipodi:cx="374.7666"
         sodipodi:cy="282.62595"
         sodipodi:rx="9.0913725"
         sodipodi:ry="9.0913725"
         d="m 383.85797,282.62595 c 0,5.02102 -4.07034,9.09137 -9.09137,9.09137 -5.02102,0 -9.09137,-4.07035 -9.09137,-9.09137 0,-5.02103 4.07035,-9.09138 9.09137,-9.09138 5.02103,0 9.09137,4.07035 9.09137,9.09138 z"
         transform="matrix(1,0,0,-1,3.0304578,755.95834)" />
      <path
         transform="matrix(1,0,0,-1,3.0304578,786.42239)"
         d="m 383.85797,282.62595 c 0,5.02102 -4.07034,9.09137 -9.09137,9.09137 -5.02102,0 -9.09137,-4.07035 -9.09137,-9.09137 0,-5.02103 4.07035,-9.09138 9.09137,-9.09138 5.02103,0 9.09137,4.07035 9.09137,9.09138 z"
         sodipodi:ry="9.0913725"
         sodipodi:rx="9.0913725"
         sodipodi:cy="282.62595"
         sodipodi:cx="374.7666"
         id="path3044"
         style="fill:#ffff00"
         sodipodi:type="arc" />
      <path
         sodipodi:type="arc"
         style="fill:#ffff00"
         id="path3046"
         sodipodi:cx="374.7666"
         sodipodi:cy="282.62595"
         sodipodi:rx="9.0913725"
         sodipodi:ry="9.0913725"
         d="m 383.85797,282.62595 c 0,5.02102 -4.07034,9.09137 -9.09137,9.09137 -5.02102,0 -9.09137,-4.07035 -9.09137,-9.09137 0,-5.02103 4.07035,-9.09138 9.09137,-9.09138 5.02103,0 9.09137,4.07035 9.09137,9.09138 z"
         transform="matrix(1,0,0,-1,3.0304578,877.81454)" />
      <path
         transform="matrix(1,0,0,-1,3.0304578,847.35049)"
         d="m 383.85797,282.62595 c 0,5.02102 -4.07034,9.09137 -9.09137,9.09137 -5.02102,0 -9.09137,-4.07035 -9.09137,-9.09137 0,-5.02103 4.07035,-9.09138 9.09137,-9.09138 5.02103,0 9.09137,4.07035 9.09137,9.09138 z"
         sodipodi:ry="9.0913725"
         sodipodi:rx="9.0913725"
         sodipodi:cy="282.62595"
         sodipodi:cx="374.7666"
         id="path3048"
         style="fill:#ffff00"
         sodipodi:type="arc" />
      <path
         sodipodi:type="arc"
         style="fill:#ffff00"
         id="path3050"
         sodipodi:cx="374.7666"
         sodipodi:cy="282.62595"
         sodipodi:rx="9.0913725"
         sodipodi:ry="9.0913725"
         d="m 383.85797,282.62595 c 0,5.02102 -4.07034,9.09137 -9.09137,9.09137 -5.02102,0 -9.09137,-4.07035 -9.09137,-9.09137 0,-5.02103 4.07035,-9.09138 9.09137,-9.09138 5.02103,0 9.09137,4.07035 9.09137,9.09138 z"
         transform="matrix(1,0,0,-1,3.0304578,816.88644)" />
      <path
         transform="matrix(1,0,0,-1,3.0304578,908.27859)"
         d="m 383.85797,282.62595 c 0,5.02102 -4.07034,9.09137 -9.09137,9.09137 -5.02102,0 -9.09137,-4.07035 -9.09137,-9.09137 0,-5.02103 4.07035,-9.09138 9.09137,-9.09138 5.02103,0 9.09137,4.07035 9.09137,9.09138 z"
         sodipodi:ry="9.0913725"
         sodipodi:rx="9.0913725"
         sodipodi:cy="282.62595"
         sodipodi:cx="374.7666"
         id="path3052"
         style="fill:#ffff00"
         sodipodi:type="arc" />
      <path
         sodipodi:type="arc"
         style="fill:#ffff00"
         id="path3054"
         sodipodi:cx="374.7666"
         sodipodi:cy="282.62595"
         sodipodi:rx="9.0913725"
         sodipodi:ry="9.0913725"
         d="m 383.85797,282.62595 c 0,5.02102 -4.07034,9.09137 -9.09137,9.09137 -5.02102,0 -9.09137,-4.07035 -9.09137,-9.09137 0,-5.02103 4.07035,-9.09138 9.09137,-9.09138 5.02103,0 9.09137,4.07035 9.09137,9.09138 z"
         transform="matrix(1,0,0,-1,3.0304578,938.74264)" />
      <path
         transform="matrix(1,0,0,-1,3.0304578,1030.1348)"
         d="m 383.85797,282.62595 c 0,5.02102 -4.07034,9.09137 -9.09137,9.09137 -5.02102,0 -9.09137,-4.07035 -9.09137,-9.09137 0,-5.02103 4.07035,-9.09138 9.09137,-9.09138 5.02103,0 9.09137,4.07035 9.09137,9.09138 z"
         sodipodi:ry="9.0913725"
         sodipodi:rx="9.0913725"
         sodipodi:cy="282.62595"
         sodipodi:cx="374.7666"
         id="path3056"
         style="fill:#ffff00"
         sodipodi:type="arc" />
      <path
         sodipodi:type="arc"
         style="fill:#ffff00"
         id="path3058"
         sodipodi:cx="374.7666"
         sodipodi:cy="282.62595"
         sodipodi:rx="9.0913725"
         sodipodi:ry="9.0913725"
         d="m 383.85797,282.62595 c 0,5.02102 -4.07034,9.09137 -9.09137,9.09137 -5.02102,0 -9.09137,-4.07035 -9.09137,-9.09137 0,-5.02103 4.07035,-9.09138 9.09137,-9.09138 5.02103,0 9.09137,4.07035 9.09137,9.09138 z"
         transform="matrix(1,0,0,-1,3.0304578,999.67074)" />
      <path
         transform="matrix(1,0,0,-1,3.0304578,969.20669)"
         d="m 383.85797,282.62595 c 0,5.02102 -4.07034,9.09137 -9.09137,9.09137 -5.02102,0 -9.09137,-4.07035 -9.09137,-9.09137 0,-5.02103 4.07035,-9.09138 9.09137,-9.09138 5.02103,0 9.09137,4.07035 9.09137,9.09138 z"
         sodipodi:ry="9.0913725"
         sodipodi:rx="9.0913725"
         sodipodi:cy="282.62595"
         sodipodi:cx="374.7666"
         id="path3060"
         style="fill:#ffff00"
         sodipodi:type="arc" />
      <path
         sodipodi:type="arc"
         style="fill:#ffff00"
         id="path3062"
         sodipodi:cx="374.7666"
         sodipodi:cy="282.62595"
         sodipodi:rx="9.0913725"
         sodipodi:ry="9.0913725"
         d="m 383.85797,282.62595 c 0,5.02102 -4.07034,9.09137 -9.09137,9.09137 -5.02102,0 -9.09137,-4.07035 -9.09137,-9.09137 0,-5.02103 4.07035,-9.09138 9.09137,-9.09138 5.02103,0 9.09137,4.07035 9.09137,9.09138 z"
         transform="matrix(1,0,0,-1,3.0304578,1060.5988)" />
      <path
         transform="matrix(1,0,0,-1,3.0304578,1091.0629)"
         d="m 383.85797,282.62595 c 0,5.02102 -4.07034,9.09137 -9.09137,9.09137 -5.02102,0 -9.09137,-4.07035 -9.09137,-9.09137 0,-5.02103 4.07035,-9.09138 9.09137,-9.09138 5.02103,0 9.09137,4.07035 9.09137,9.09138 z"
         sodipodi:ry="9.0913725"
         sodipodi:rx="9.0913725"
         sodipodi:cy="282.62595"
         sodipodi:cx="374.7666"
         id="path3064"
         style="fill:#ffff00"
         sodipodi:type="arc" />
      <path
         sodipodi:type="arc"
         style="fill:#ffff00"
         id="path3066"
         sodipodi:cx="374.7666"
         sodipodi:cy="282.62595"
         sodipodi:rx="9.0913725"
         sodipodi:ry="9.0913725"
         d="m 383.85797,282.62595 c 0,5.02102 -4.07034,9.09137 -9.09137,9.09137 -5.02102,0 -9.09137,-4.07035 -9.09137,-9.09137 0,-5.02103 4.07035,-9.09138 9.09137,-9.09138 5.02103,0 9.09137,4.07035 9.09137,9.09138 z"
         transform="matrix(1,0,0,-1,3.0304578,1182.4551)" />
      <path
         transform="matrix(1,0,0,-1,3.0304578,1151.991)"
         d="m 383.85797,282.62595 c 0,5.02102 -4.07034,9.09137 -9.09137,9.09137 -5.02102,0 -9.09137,-4.07035 -9.09137,-9.09137 0,-5.02103 4.07035,-9.09138 9.09137,-9.09138 5.02103,0 9.09137,4.07035 9.09137,9.09138 z"
         sodipodi:ry="9.0913725"
         sodipodi:rx="9.0913725"
         sodipodi:cy="282.62595"
         sodipodi:cx="374.7666"
         id="path3068"
         style="fill:#ffff00"
         sodipodi:type="arc" />
      <path
         sodipodi:type="arc"
         style="fill:#ffff00"
         id="path3070"
         sodipodi:cx="374.7666"
         sodipodi:cy="282.62595"
         sodipodi:rx="9.0913725"
         sodipodi:ry="9.0913725"
         d="m 383.85797,282.62595 c 0,5.02102 -4.07034,9.09137 -9.09137,9.09137 -5.02102,0 -9.09137,-4.07035 -9.09137,-9.09137 0,-5.02103 4.07035,-9.09138 9.09137,-9.09138 5.02103,0 9.09137,4.07035 9.09137,9.09138 z"
         transform="matrix(1,0,0,-1,3.0304578,1121.527)" />
      <path
         sodipodi:type="arc"
         style="fill:#ffffff"
         id="path3072"
         sodipodi:cx="374.7666"
         sodipodi:cy="282.62595"
         sodipodi:rx="9.0913725"
         sodipodi:ry="9.0913725"
         d="m 383.85797,282.62595 c 0,5.02102 -4.07034,9.09137 -9.09137,9.09137 -5.02102,0 -9.09137,-4.07035 -9.09137,-9.09137 0,-5.02103 4.07035,-9.09138 9.09137,-9.09138 5.02103,0 9.09137,4.07035 9.09137,9.09138 z"
         transform="matrix(1,0,0,-1,44.446712,603.63809)" />
      <path
         transform="matrix(1,0,0,-1,44.446712,634.10214)"
         d="m 383.85797,282.62595 c 0,5.02102 -4.07034,9.09137 -9.09137,9.09137 -5.02102,0 -9.09137,-4.07035 -9.09137,-9.09137 0,-5.02103 4.07035,-9.09138 9.09137,-9.09138 5.02103,0 9.09137,4.07035 9.09137,9.09138 z"
         sodipodi:ry="9.0913725"
         sodipodi:rx="9.0913725"
         sodipodi:cy="282.62595"
         sodipodi:cx="374.7666"
         id="path3074"
         style="fill:#ffffff"
         sodipodi:type="arc" />
      <path
         sodipodi:type="arc"
         style="fill:#ffff00"
         id="path3076"
         sodipodi:cx="374.7666"
         sodipodi:cy="282.62595"
         sodipodi:rx="9.0913725"
         sodipodi:ry="9.0913725"
         d="m 383.85797,282.62595 c 0,5.02102 -4.07034,9.09137 -9.09137,9.09137 -5.02102,0 -9.09137,-4.07035 -9.09137,-9.09137 0,-5.02103 4.07035,-9.09138 9.09137,-9.09138 5.02103,0 9.09137,4.07035 9.09137,9.09138 z"
         transform="matrix(1,0,0,-1,44.446712,725.49429)" />
      <path
         transform="matrix(1,0,0,-1,44.446712,695.03024)"
         d="m 383.85797,282.62595 c 0,5.02102 -4.07034,9.09137 -9.09137,9.09137 -5.02102,0 -9.09137,-4.07035 -9.09137,-9.09137 0,-5.02103 4.07035,-9.09138 9.09137,-9.09138 5.02103,0 9.09137,4.07035 9.09137,9.09138 z"
         sodipodi:ry="9.0913725"
         sodipodi:rx="9.0913725"
         sodipodi:cy="282.62595"
         sodipodi:cx="374.7666"
         id="path3078"
         style="fill:#ffff00"
         sodipodi:type="arc" />
      <path
         sodipodi:type="arc"
         style="fill:#ffff00"
         id="path3080"
         sodipodi:cx="374.7666"
         sodipodi:cy="282.62595"
         sodipodi:rx="9.0913725"
         sodipodi:ry="9.0913725"
         d="m 383.85797,282.62595 c 0,5.02102 -4.07034,9.09137 -9.09137,9.09137 -5.02102,0 -9.09137,-4.07035 -9.09137,-9.09137 0,-5.02103 4.07035,-9.09138 9.09137,-9.09138 5.02103,0 9.09137,4.07035 9.09137,9.09138 z"
         transform="matrix(1,0,0,-1,44.446712,664.56619)" />
      <path
         transform="matrix(1,0,0,-1,44.446712,755.95834)"
         d="m 383.85797,282.62595 c 0,5.02102 -4.07034,9.09137 -9.09137,9.09137 -5.02102,0 -9.09137,-4.07035 -9.09137,-9.09137 0,-5.02103 4.07035,-9.09138 9.09137,-9.09138 5.02103,0 9.09137,4.07035 9.09137,9.09138 z"
         sodipodi:ry="9.0913725"
         sodipodi:rx="9.0913725"
         sodipodi:cy="282.62595"
         sodipodi:cx="374.7666"
         id="path3082"
         style="fill:#ffff00"
         sodipodi:type="arc" />
      <path
         sodipodi:type="arc"
         style="fill:#ffff00"
         id="path3084"
         sodipodi:cx="374.7666"
         sodipodi:cy="282.62595"
         sodipodi:rx="9.0913725"
         sodipodi:ry="9.0913725"
         d="m 383.85797,282.62595 c 0,5.02102 -4.07034,9.09137 -9.09137,9.09137 -5.02102,0 -9.09137,-4.07035 -9.09137,-9.09137 0,-5.02103 4.07035,-9.09138 9.09137,-9.09138 5.02103,0 9.09137,4.07035 9.09137,9.09138 z"
         transform="matrix(1,0,0,-1,44.446712,786.42239)" />
      <path
         transform="matrix(1,0,0,-1,44.446712,877.81454)"
         d="m 383.85797,282.62595 c 0,5.02102 -4.07034,9.09137 -9.09137,9.09137 -5.02102,0 -9.09137,-4.07035 -9.09137,-9.09137 0,-5.02103 4.07035,-9.09138 9.09137,-9.09138 5.02103,0 9.09137,4.07035 9.09137,9.09138 z"
         sodipodi:ry="9.0913725"
         sodipodi:rx="9.0913725"
         sodipodi:cy="282.62595"
         sodipodi:cx="374.7666"
         id="path3086"
         style="fill:#ffff00"
         sodipodi:type="arc" />
      <path
         sodipodi:type="arc"
         style="fill:#ffff00"
         id="path3088"
         sodipodi:cx="374.7666"
         sodipodi:cy="282.62595"
         sodipodi:rx="9.0913725"
         sodipodi:ry="9.0913725"
         d="m 383.85797,282.62595 c 0,5.02102 -4.07034,9.09137 -9.09137,9.09137 -5.02102,0 -9.09137,-4.07035 -9.09137,-9.09137 0,-5.02103 4.07035,-9.09138 9.09137,-9.09138 5.02103,0 9.09137,4.07035 9.09137,9.09138 z"
         transform="matrix(1,0,0,-1,44.446712,847.35049)" />
      <path
         transform="matrix(1,0,0,-1,44.446712,816.88644)"
         d="m 383.85797,282.62595 c 0,5.02102 -4.07034,9.09137 -9.09137,9.09137 -5.02102,0 -9.09137,-4.07035 -9.09137,-9.09137 0,-5.02103 4.07035,-9.09138 9.09137,-9.09138 5.02103,0 9.09137,4.07035 9.09137,9.09138 z"
         sodipodi:ry="9.0913725"
         sodipodi:rx="9.0913725"
         sodipodi:cy="282.62595"
         sodipodi:cx="374.7666"
         id="path3090"
         style="fill:#ffff00"
         sodipodi:type="arc" />
      <path
         sodipodi:type="arc"
         style="fill:#ffff00"
         id="path3092"
         sodipodi:cx="374.7666"
         sodipodi:cy="282.62595"
         sodipodi:rx="9.0913725"
         sodipodi:ry="9.0913725"
         d="m 383.85797,282.62595 c 0,5.02102 -4.07034,9.09137 -9.09137,9.09137 -5.02102,0 -9.09137,-4.07035 -9.09137,-9.09137 0,-5.02103 4.07035,-9.09138 9.09137,-9.09138 5.02103,0 9.09137,4.07035 9.09137,9.09138 z"
         transform="matrix(1,0,0,-1,44.446712,908.27859)" />
      <path
         transform="matrix(1,0,0,-1,44.446712,938.74264)"
         d="m 383.85797,282.62595 c 0,5.02102 -4.07034,9.09137 -9.09137,9.09137 -5.02102,0 -9.09137,-4.07035 -9.09137,-9.09137 0,-5.02103 4.07035,-9.09138 9.09137,-9.09138 5.02103,0 9.09137,4.07035 9.09137,9.09138 z"
         sodipodi:ry="9.0913725"
         sodipodi:rx="9.0913725"
         sodipodi:cy="282.62595"
         sodipodi:cx="374.7666"
         id="path3094"
         style="fill:#ffff00"
         sodipodi:type="arc" />
      <path
         sodipodi:type="arc"
         style="fill:#ffff00"
         id="path3096"
         sodipodi:cx="374.7666"
         sodipodi:cy="282.62595"
         sodipodi:rx="9.0913725"
         sodipodi:ry="9.0913725"
         d="m 383.85797,282.62595 c 0,5.02102 -4.07034,9.09137 -9.09137,9.09137 -5.02102,0 -9.09137,-4.07035 -9.09137,-9.09137 0,-5.02103 4.07035,-9.09138 9.09137,-9.09138 5.02103,0 9.09137,4.07035 9.09137,9.09138 z"
         transform="matrix(1,0,0,-1,44.446712,1030.1348)" />
      <path
         transform="matrix(1,0,0,-1,44.446712,999.67074)"
         d="m 383.85797,282.62595 c 0,5.02102 -4.07034,9.09137 -9.09137,9.09137 -5.02102,0 -9.09137,-4.07035 -9.09137,-9.09137 0,-5.02103 4.07035,-9.09138 9.09137,-9.09138 5.02103,0 9.09137,4.07035 9.09137,9.09138 z"
         sodipodi:ry="9.0913725"
         sodipodi:rx="9.0913725"
         sodipodi:cy="282.62595"
         sodipodi:cx="374.7666"
         id="path3098"
         style="fill:#ffff00"
         sodipodi:type="arc" />
      <path
         sodipodi:type="arc"
         style="fill:#ffff00"
         id="path3100"
         sodipodi:cx="374.7666"
         sodipodi:cy="282.62595"
         sodipodi:rx="9.0913725"
         sodipodi:ry="9.0913725"
         d="m 383.85797,282.62595 c 0,5.02102 -4.07034,9.09137 -9.09137,9.09137 -5.02102,0 -9.09137,-4.07035 -9.09137,-9.09137 0,-5.02103 4.07035,-9.09138 9.09137,-9.09138 5.02103,0 9.09137,4.07035 9.09137,9.09138 z"
         transform="matrix(1,0,0,-1,44.446712,969.20669)" />
      <path
         transform="matrix(1,0,0,-1,44.446712,1060.5988)"
         d="m 383.85797,282.62595 c 0,5.02102 -4.07034,9.09137 -9.09137,9.09137 -5.02102,0 -9.09137,-4.07035 -9.09137,-9.09137 0,-5.02103 4.07035,-9.09138 9.09137,-9.09138 5.02103,0 9.09137,4.07035 9.09137,9.09138 z"
         sodipodi:ry="9.0913725"
         sodipodi:rx="9.0913725"
         sodipodi:cy="282.62595"
         sodipodi:cx="374.7666"
         id="path3102"
         style="fill:#ffff00"
         sodipodi:type="arc" />
      <path
         sodipodi:type="arc"
         style="fill:#ffff00"
         id="path3104"
         sodipodi:cx="374.7666"
         sodipodi:cy="282.62595"
         sodipodi:rx="9.0913725"
         sodipodi:ry="9.0913725"
         d="m 383.85797,282.62595 c 0,5.02102 -4.07034,9.09137 -9.09137,9.09137 -5.02102,0 -9.09137,-4.07035 -9.09137,-9.09137 0,-5.02103 4.07035,-9.09138 9.09137,-9.09138 5.02103,0 9.09137,4.07035 9.09137,9.09138 z"
         transform="matrix(1,0,0,-1,44.446712,1091.0629)" />
      <path
         transform="matrix(1,0,0,-1,44.446712,1182.4551)"
         d="m 383.85797,282.62595 c 0,5.02102 -4.07034,9.09137 -9.09137,9.09137 -5.02102,0 -9.09137,-4.07035 -9.09137,-9.09137 0,-5.02103 4.07035,-9.09138 9.09137,-9.09138 5.02103,0 9.09137,4.07035 9.09137,9.09138 z"
         sodipodi:ry="9.0913725"
         sodipodi:rx="9.0913725"
         sodipodi:cy="282.62595"
         sodipodi:cx="374.7666"
         id="path3106"
         style="fill:#ffff00"
         sodipodi:type="arc" />
      <path
         sodipodi:type="arc"
         style="fill:#ffff00"
         id="path3108"
         sodipodi:cx="374.7666"
         sodipodi:cy="282.62595"
         sodipodi:rx="9.0913725"
         sodipodi:ry="9.0913725"
         d="m 383.85797,282.62595 c 0,5.02102 -4.07034,9.09137 -9.09137,9.09137 -5.02102,0 -9.09137,-4.07035 -9.09137,-9.09137 0,-5.02103 4.07035,-9.09138 9.09137,-9.09138 5.02103,0 9.09137,4.07035 9.09137,9.09138 z"
         transform="matrix(1,0,0,-1,44.446712,1151.991)" />
      <path
         transform="matrix(1,0,0,-1,44.446712,1121.527)"
         d="m 383.85797,282.62595 c 0,5.02102 -4.07034,9.09137 -9.09137,9.09137 -5.02102,0 -9.09137,-4.07035 -9.09137,-9.09137 0,-5.02103 4.07035,-9.09138 9.09137,-9.09138 5.02103,0 9.09137,4.07035 9.09137,9.09138 z"
         sodipodi:ry="9.0913725"
         sodipodi:rx="9.0913725"
         sodipodi:cy="282.62595"
         sodipodi:cx="374.7666"
         id="path3110"
         style="fill:#ffff00"
         sodipodi:type="arc" />
      <text
         sodipodi:linespacing="125%"
         id="text3131"
         y="322.02188"
         x="324.25897"
         style="font-size:40px;font-style:normal;font-weight:normal;line-height:125%;letter-spacing:0px;word-spacing:0px;fill:#e6e6e6;fill-opacity:1;stroke:none;font-family:Sans"
         xml:space="preserve"><tspan
           y="322.02188"
           x="324.25897"
           id="tspan3133"
           sodipodi:role="line" /></text>
      <text
         sodipodi:linespacing="125%"
         id="text3135"
         y="330.10312"
         x="333.35034"
         style="font-size:40px;font-style:normal;font-weight:normal;line-height:125%;letter-spacing:0px;word-spacing:0px;fill:#ececec;fill-opacity:1;stroke:none;font-family:Sans"
         xml:space="preserve"><tspan
           y="330.10312"
           x="333.35034"
           id="tspan3137"
           sodipodi:role="line" /></text>
      <text
         sodipodi:linespacing="125%"
         id="text3907"
         y="316.36218"
         x="329"
         style="font-size:24px;font-style:normal;font-weight:normal;line-height:125%;letter-spacing:0px;word-spacing:0px;fill:#ffffff;fill-opacity:1;stroke:none;font-family:Sans"
         xml:space="preserve"><tspan
           y="316.36218"
           x="329"
           id="tspan3909"
           sodipodi:role="line" /></text>
      <text
         sodipodi:linespacing="125%"
         id="text3911"
         y="321.36218"
         x="349"
         style="font-size:40px;font-style:normal;font-weight:normal;line-height:125%;letter-spacing:0px;word-spacing:0px;fill:#000000;fill-opacity:1;stroke:none;font-family:Sans"
         xml:space="preserve"><tspan
           style="font-size:24px;fill:#ececec"
           y="321.36218"
           x="349"
           id="tspan3913"
           sodipodi:role="line">1</tspan></text>
      <text
         xml:space="preserve"
         style="font-size:40px;font-style:normal;font-weight:normal;line-height:125%;letter-spacing:0px;word-spacing:0px;fill:#000000;fill-opacity:1;stroke:none;font-family:Sans"
         x="426"
         y="924.36218"
         id="text3915"
         sodipodi:linespacing="125%"><tspan
           sodipodi:role="line"
           id="tspan3917"
           x="426"
           y="924.36218"
           style="font-size:24px;fill:#ececec">40</tspan></text>
      <rect
         y="510.30051"
         x="120.27765"
         height="158"
         width="139"
         id="rect3042"
         style="fill:#333333" />
      <path
         transform="translate(115.19061,3.0049723)"
         clip-path="url(#clipPath3964)"
         inkscape:connector-curvature="0"
         id="path3109"
         d="m -32.396831,421.04714 c 1.30659,-3.98478 3.84299,-8.50483 6.63319,-11.82079 1.41941,-1.68687 3.83147,-5.45332 5.36013,-8.36988 6.24992,-11.92432 9.86281,-17.47926 14.2341498,-21.88553 4.61503,-4.6519 6.43669004,-5.52927 20.8976102,-10.06494 4.125,-1.29381 9.70139,-3.69686 12.39198,-5.34012 4.00882,-2.44835 6.23144,-3.05537 12.31142,-3.3624 9.54138,-0.48182 14.92078,1.51285 21.5281,7.98257 4.17185,4.08498 5.57769,4.86757 8.74406,4.86757 7.9048,0 17.03734,4.95774 21.32276,11.57538 2.33385,3.60398 3.70167,4.34472 3.70167,2.00462 0,-1.93181 11.252641,-13.05453 15.263491,-15.08727 6.51932,-3.30405 12.39656,-4.79962 19.23651,-4.89506 l 7,-0.0977 2.20878,4.5 c 1.21483,2.475 2.22733,5.6475 2.25,7.05 0.0227,1.4025 0.46602,2.9775 0.98521,3.5 1.50418,1.51375 3.06602,16.56277 1.93775,18.67098 -0.53583,1.0012 -0.70024,2.26368 -0.36536,2.80552 0.66979,1.08375 -0.92764,6.87831 -3.11642,11.30454 -0.76998,1.55707 -1.39996,3.39113 -1.39996,4.07569 0,1.83397 -3.86157,5.14546 -9.76428,8.37338 l -5.20721,2.84758 4.08143,1.80072 c 5.04166,2.22438 10.89006,7.24379 10.89006,9.34645 0,0.86221 0.67479,2.3133 1.49953,3.22462 0.82474,0.91133 1.74933,3.19677 2.05464,5.07875 0.30532,1.88197 0.79321,4.77178 1.08421,6.42178 0.82378,4.67087 0.49806,12.99068 -0.69335,17.71016 -0.59562,2.35941 -1.31081,5.41484 -1.58931,6.78984 -0.2785,1.375 -0.86644,3.4 -1.30653,4.5 -0.44009,1.1 -1.29655,3.2375 -1.90324,4.75 -1.15324,2.87506 -3.41388,3.42789 -12.14595,2.97024 -5.13286,-0.26901 -19.80319,-6.54378 -20.68757,-8.84846 -0.28953,-0.75448 -1.14289,-1.37178 -1.89637,-1.37178 -0.75347,0 -2.16001,-1.2375 -3.12563,-2.75 -0.965621,-1.5125 -2.499571,-3.302 -3.408791,-3.97667 -0.90921,-0.67467 -1.94858,-2.40389 -2.3097,-3.84271 l -0.65658,-2.61604 -4.08433,4.64004 c -4.86883,5.53129 -11.3879,9.04117 -18.61879,10.02442 -4.50582,0.6127 -5.88541,1.35666 -9.32919,5.03092 -5.91626,6.31219 -12.4937,8.84222 -21.48712,8.26505 -5.62143,-0.36076 -8.24092,-1.09352 -12.04021,-3.36804 -6.59258,-3.94678 -7.63918,-4.31257 -15.54908,-5.4344 -3.7835402,-0.5366 -9.0003502,-2.05977 -11.59290016,-3.38481 -7.72075004,-3.94605 -10.78008004,-8.02063 -21.12090984,-28.12988 -1.42605,-2.77317 -3.8608,-6.37317 -5.41056,-8.00001 -4.82937,-5.06956 -6.96993,-10.32537 -7.31382,-17.95787 -0.17346,-3.85 0.0545,-8.12792 0.50648,-9.50648 z m 7.8249,19.13841 c 3.19123,5.93752 7.56484,9.33198 10.20399,7.91954 4.3812598,-2.34477 6.6326198,-19.06412 3.98367,-29.58403 -1.50128,-5.96212 -5.15947,-9.92743 -7.83671,-8.49461 -3.17309,1.69818 -7.29506,7.80073 -8.67802,12.84772 -1.60852,5.87015 -0.8702,11.36264 2.32707,17.31138 z m 17.5895398,-35.77186 c 6.28735004,5.30605 24.2773102,-3.6363 29.6522102,-14.73937 2.69004,-5.55689 2.59725,-8.17279 -0.39612,-11.16615 -1.90667,-1.90668 -3.49902,-2.45455 -7.13398,-2.45455 -11.0015502,0 -20.0665302,6.17724 -23.4797002,16 -2.1803698,6.27488 -1.8051598,9.69096 1.35759,12.36007 z m -0.61195,63.63993 c 4.04538,9.94334 15.86629,16.14906 26.4413402,13.88111 10.67881,-2.29019 10.97343,-10.77002 0.71146,-20.47722 -5.54428,-5.24455 -10.1472402,-7.95563 -16.0094602,-9.42936 -5.7226,-1.43863 -11.49884,0.0819 -12.82475,3.37592 -1.0146798,2.52085 -0.32334,7.72197 1.68141,12.64955 z m 5.86144,-31.8899 c 1.90185004,5.39041 5.71858,9.5668 10.96115,11.99403 5.0446402,2.3356 7.9406102,2.33305 13.1032902,-0.0115 5.70112,-2.5891 9.19138,-6.67557 11.01519,-12.89686 2.07144,-7.06598 0.53978,-13.90793 -4.31692,-19.28371 -10.44113,-11.55709 -26.6649002,-7.37718 -31.3672202,8.08148 -1.217,4.00086 -1.04541,7.44021 0.60451,12.11658 z M 27.978249,375.44533 c 6.59558,4.21477 26.07407,6.28546 30.2693,3.21784 5.1831,-3.78998 -7.09667,-13.60955 -17.0193,-13.60955 -6.14775,0 -15.5,4.55246 -15.5,7.54504 0,0.77487 1.0125,2.05587 2.25,2.84667 z m 3.6831,113.55934 c 9.03227,4.57039 17.62049,3.35938 24.77211,-3.49308 5.44382,-5.2161 5.40079,-7.50313 -0.16596,-8.81964 -6.80853,-1.61018 -24.55986,1.86893 -28.56257,5.59802 -2.49667,2.32601 -1.55357,3.92661 3.95642,6.7147 z m 0.97927,-77.16121 c 4.23925,8.22449 12.19796,13.21016 21.08763,13.21016 6.63578,0 11.11051,-1.96728 14.4583,-6.35646 9.68714,-12.70049 -2.46494,-31.64354 -20.29952,-31.64354 -6.72843,0 -11.12246,2.33847 -14.88498,7.92168 -2.89181,4.29115 -3.04954,11.65299 -0.36143,16.86816 z m 0.97984,51.71016 c 2.18908,3.9716 9.29326,7.50267 15.06968,7.49023 10.07479,-0.0217 20.73832,-8.40367 23.07319,-18.13651 4.93053,-20.55273 -25.35684,-27.24952 -37.12478,-8.20859 -4.01203,6.4916 -4.3529,12.80457 -1.01809,18.85487 z m 39.69923,-71.85113 c 6.37274,8.33559 13.9912,15.65431 15.70854,15.0905 1.69189,-0.55545 2.06328,-7.37026 0.67239,-12.33803 -2.21653,-7.91665 -9.49857,-14.28382 -18.20401,-15.91697 -7.34094,-1.37717 -6.90883,1.74309 1.82308,13.1645 z m -4.84145,86.34555 c 8.94642,-0.0181 18.95801,-7.4826 21.1992,-15.80575 1.3556,-5.03434 1.03793,-12.37332 -0.55828,-12.89731 -2.83589,-0.93095 -23.39092,23.0791 -23.39092,27.32259 0,0.84674 1.07002,1.38388 2.75,1.38047 z m 6.91336,-37.22313 c 1.01782,2.86329 2.49718,4.77748 4.48776,5.80685 2.72521,1.40926 3.22904,1.38393 6.12605,-0.30801 4.39256,-2.56539 8.72283,-11.1388 8.72283,-17.27013 0,-5.81979 -4.3461,-14.77564 -8.22756,-16.95425 -5.76923,-3.23818 -11.22613,2.43818 -12.72084,13.23242 -0.84435,6.09764 -0.47873,9.61217 1.61176,15.49312 z m 22.04586,-32.54 c 1.67013,4.17405 5.541571,7.76871 8.366911,7.76871 2.21809,0 8.67372,-8.08737 15.67387,-19.63564 2.8875,-4.76355 5.25,-8.2536 5.25,-7.75566 0,2.03943 -10.08021,21.23213 -13.49271,25.69008 -3.47062,4.53388 -3.58894,4.92766 -2.14353,7.13362 2.49475,3.80748 6.50718,4.64249 12.52267,2.60604 5.52337,-1.86984 10.8368,-5.97342 9.11357,-7.03844 -0.59856,-0.36993 0.0128,-1.60287 1.47681,-2.97821 1.73641,-1.63127 2.19816,-2.7085 1.51423,-3.53258 -0.67851,-0.81757 -0.35687,-1.75315 1.03613,-3.01379 1.35388,-1.22525 1.65141,-2.05604 0.90216,-2.51909 -0.79276,-0.48996 -0.64518,-1.60514 0.5074,-3.83397 0.89393,-1.72868 1.27386,-3.0851 0.8443,-3.01428 -2.03915,0.33618 -2.2158,-0.33354 -0.80671,-3.05842 1.90047,-3.6751 1.90443,-4.13223 0.0296,-3.41278 -1.20275,0.46154 -1.37432,-0.0348 -0.875,-2.53139 0.39526,-1.97629 0.21899,-3.10549 -0.48477,-3.10549 -0.73616,0 -0.89866,-1.51173 -0.48607,-4.52193 0.53732,-3.92019 0.40171,-4.43823 -1.01913,-3.89301 -1.33322,0.5116 -1.63893,-0.0487 -1.63893,-3.00375 l 0,-3.63267 -3,1.55136 c -2.89688,1.49804 -3,1.4753 -3,-0.66141 0,-2.13672 -0.10311,-2.11398 -3,0.66141 -2.57716,2.46907 -3,2.61002 -3,1 0,-1.61002 -0.42284,-1.46907 -3,1 -2.658,2.54653 -3.00463,2.65336 -3.04064,0.93709 -0.0333,-1.58781 -0.57424,-1.31282 -3,1.52514 -2.45505,2.87222 -2.9669,3.12784 -3.00363,1.5 -0.0326,-1.44373 -0.6271,-0.97392 -2.25,1.77798 -2.25195,3.81858 -3.64585,4.74364 -3.78181,2.50979 -0.0418,-0.6875 -0.60434,0.20576 -1.25,1.98502 -0.64565,1.77925 -1.57361,3.20332 -2.06212,3.16459 -1.408081,-0.11165 -2.579841,2.3512 -2.596491,5.45738 -0.0119,2.21643 -0.37751,2.718 -1.63079,2.23707 -1.40366,-0.53863 -1.52257,-2.9e-4 -0.90685,4.10558 0.38974,2.59902 1.39394,6.43826 2.23155,8.53165 z m -1.34576,55.18273 c 0.96621,-0.37077 1.5631,0.72522 2.04865,3.76169 0.4614,2.88547 0.95766,3.84402 1.5195,2.93495 0.597251,-0.96637 1.168661,-0.33687 2.010991,2.21542 0.66692,2.02079 1.69237,3.3716 2.36704,3.11809 0.6547,-0.24601 2.03858,1.01591 3.0753,2.80427 1.28223,2.21188 2.04615,2.79835 2.38913,1.83416 0.35966,-1.01108 1.31662,-0.43773 3.33816,2 2.30918,2.78457 2.83895,3.05869 2.86087,1.48031 0.0238,-1.71347 0.37323,-1.60529 3.0269,0.93709 2.34544,2.24707 3,2.50608 3,1.18709 0,-2.22493 0.557,-2.13009 3.23852,0.55143 1.99647,1.99647 2.27471,2.05054 2.57332,0.5 0.41236,-2.1412 1.12181,-2.17373 3.96565,-0.18182 2.19047,1.53427 2.22251,1.49646 2.22251,-2.62244 0,-3.78196 0.15828,-4.04871 1.66535,-2.8067 1.52546,1.25716 1.61107,0.97345 1.01913,-3.37756 -0.43013,-3.16167 -0.28102,-4.75 0.44594,-4.75 0.71727,0 0.85457,-1.26646 0.4,-3.68957 -0.61684,-3.28801 -0.52012,-3.54677 0.8887,-2.37755 1.96556,1.63126 1.98211,0.96315 0.0884,-3.5691 -1.32329,-3.16708 -1.32329,-3.50706 0,-2.99926 2.08223,0.79902 1.86042,-0.62703 -0.58011,-3.72966 -1.87471,-2.38331 -1.90581,-2.63486 -0.32569,-2.63486 1.53941,0 1.48865,-0.2749 -0.42742,-2.31446 -2.63173,-2.80135 -2.73094,-3.67262 -0.42431,-3.72619 1.31503,-0.0305 0.92224,-0.74882 -1.58033,-2.88988 -2.27826,-1.94915 -2.91007,-3.01231 -2,-3.36541 2.03881,-0.79104 -3.85071,-5.35163 -9.31452,-7.21277 -5.42001,-1.84622 -8.78397,-1.26041 -11.91779,2.07538 l -2.2523,2.39746 4.03219,5.76794 c 4.18606,5.98803 11.49175,19.91421 12.731,24.26793 0.39138,1.375 -1.3644,-1.1 -3.90175,-5.5 -6.4037,-11.10465 -14.67374,-21.08944 -17.12602,-20.67704 -3.43765,0.5781 -7.293681,5.46482 -8.819611,11.17704 -1.92237,7.19625 -1.99531,10.08859 -0.23741,9.41402 z"
         style="fill:#ffffff" />
      <g
         id="g3983">
        <path
           sodipodi:type="arc"
           style="fill:#808000"
           id="path3968"
           sodipodi:cx="154.75607"
           sodipodi:cy="23.980274"
           sodipodi:rx="14.524033"
           sodipodi:ry="14.524033"
           d="m 169.28011,23.980274 c 0,8.021402 -6.50264,14.524033 -14.52404,14.524033 -8.0214,0 -14.52403,-6.502631 -14.52403,-14.524033 0,-8.021402 6.50263,-14.5240324 14.52403,-14.5240324 8.0214,0 14.52404,6.5026304 14.52404,14.5240324 z"
           transform="matrix(1.137931,0,0,1.2068966,279.7248,238.70273)" />
        <g
           id="g3972">
          <path
             transform="matrix(1.2380952,0,0,1.1666667,531.59477,198.8499)"
             d="m -51.084529,58.537457 c 0,6.638401 -4.708802,12.019888 -10.517404,12.019888 -5.808601,0 -10.517403,-5.381487 -10.517403,-12.019888 0,-6.638402 4.708802,-12.019889 10.517403,-12.019889 5.808602,0 10.517404,5.381487 10.517404,12.019889 z"
             sodipodi:ry="12.019889"
             sodipodi:rx="10.517404"
             sodipodi:cy="58.537457"
             sodipodi:cx="-61.601933"
             id="path3970"
             style="fill:#ffffff"
             sodipodi:type="arc" />
        </g>
        <g
           id="g3979">
          <path
             sodipodi:type="arc"
             style="fill:#ffffff"
             id="path3981"
             sodipodi:cx="-61.601933"
             sodipodi:cy="58.537457"
             sodipodi:rx="10.517404"
             sodipodi:ry="12.019889"
             d="m -51.084529,58.537457 c 0,6.638401 -4.708802,12.019888 -10.517404,12.019888 -5.808601,0 -10.517403,-5.381487 -10.517403,-12.019888 0,-6.638402 4.708802,-12.019889 10.517403,-12.019889 5.808602,0 10.517404,5.381487 10.517404,12.019889 z"
             transform="matrix(1.2380952,0,0,1.1666667,531.59477,198.8499)" />
        </g>
      </g>
      <g
         transform="translate(3.0049723,677.12043)"
         id="g3990">
        <path
           transform="matrix(1.137931,0,0,1.2068966,279.7248,238.70273)"
           d="m 169.28011,23.980274 c 0,8.021402 -6.50264,14.524033 -14.52404,14.524033 -8.0214,0 -14.52403,-6.502631 -14.52403,-14.524033 0,-8.021402 6.50263,-14.5240324 14.52403,-14.5240324 8.0214,0 14.52404,6.5026304 14.52404,14.5240324 z"
           sodipodi:ry="14.524033"
           sodipodi:rx="14.524033"
           sodipodi:cy="23.980274"
           sodipodi:cx="154.75607"
           id="path3992"
           style="fill:#808000"
           sodipodi:type="arc" />
        <g
           id="g3994">
          <path
             sodipodi:type="arc"
             style="fill:#ffffff"
             id="path3996"
             sodipodi:cx="-61.601933"
             sodipodi:cy="58.537457"
             sodipodi:rx="10.517404"
             sodipodi:ry="12.019889"
             d="m -51.084529,58.537457 c 0,6.638401 -4.708802,12.019888 -10.517404,12.019888 -5.808601,0 -10.517403,-5.381487 -10.517403,-12.019888 0,-6.638402 4.708802,-12.019889 10.517403,-12.019889 5.808602,0 10.517404,5.381487 10.517404,12.019889 z"
             transform="matrix(1.2380952,0,0,1.1666667,531.59477,198.8499)" />
        </g>
        <g
           id="g3998">
          <path
             transform="matrix(1.2380952,0,0,1.1666667,531.59477,198.8499)"
             d="m -51.084529,58.537457 c 0,6.638401 -4.708802,12.019888 -10.517404,12.019888 -5.808601,0 -10.517403,-5.381487 -10.517403,-12.019888 0,-6.638402 4.708802,-12.019889 10.517403,-12.019889 5.808602,0 10.517404,5.381487 10.517404,12.019889 z"
             sodipodi:ry="12.019889"
             sodipodi:rx="10.517404"
             sodipodi:cy="58.537457"
             sodipodi:cx="-61.601933"
             id="path4000"
             style="fill:#ffffff"
             sodipodi:type="arc" />
        </g>
      </g>
    </g>
    <g
       transform="translate(-151.64427,-234.47645)"
       id="layer1-5"
       inkscape:label="Layer 1">
      <rect
         y="245.66747"
         x="160.08704"
         height="276.62805"
         width="285.97162"
         id="rect2989-9"
         style="fill:#000080" />
      <rect
         ry="11.990788"
         y="268.4838"
         x="340.42139"
         height="217.83264"
         width="73.106628"
         id="rect2995-8"
         style="fill:#000000" />
      <path
         transform="matrix(1,0,0,-1,3.0304578,603.63809)"
         d="m 383.85797,282.62595 c 0,5.02102 -4.07034,9.09137 -9.09137,9.09137 -5.02102,0 -9.09137,-4.07035 -9.09137,-9.09137 0,-5.02103 4.07035,-9.09138 9.09137,-9.09138 5.02103,0 9.09137,4.07035 9.09137,9.09138 z"
         sodipodi:ry="9.0913725"
         sodipodi:rx="9.0913725"
         sodipodi:cy="282.62595"
         sodipodi:cx="374.7666"
         id="path2999-1"
         style="fill:#0000ff"
         sodipodi:type="arc" />
      <path
         sodipodi:type="arc"
         style="fill:#ff0000"
         id="path3034-6"
         sodipodi:cx="374.7666"
         sodipodi:cy="282.62595"
         sodipodi:rx="9.0913725"
         sodipodi:ry="9.0913725"
         d="m 383.85797,282.62595 c 0,5.02102 -4.07034,9.09137 -9.09137,9.09137 -5.02102,0 -9.09137,-4.07035 -9.09137,-9.09137 0,-5.02103 4.07035,-9.09138 9.09137,-9.09138 5.02103,0 9.09137,4.07035 9.09137,9.09138 z"
         transform="matrix(1,0,0,-1,3.0304578,634.10214)" />
      <path
         transform="matrix(1,0,0,-1,3.0304578,725.49429)"
         d="m 383.85797,282.62595 c 0,5.02102 -4.07034,9.09137 -9.09137,9.09137 -5.02102,0 -9.09137,-4.07035 -9.09137,-9.09137 0,-5.02103 4.07035,-9.09138 9.09137,-9.09138 5.02103,0 9.09137,4.07035 9.09137,9.09138 z"
         sodipodi:ry="9.0913725"
         sodipodi:rx="9.0913725"
         sodipodi:cy="282.62595"
         sodipodi:cx="374.7666"
         id="path3036-4"
         style="fill:#cccccc"
         sodipodi:type="arc" />
      <path
         sodipodi:type="arc"
         style="fill:#ffffff"
         id="path3038-6"
         sodipodi:cx="374.7666"
         sodipodi:cy="282.62595"
         sodipodi:rx="9.0913725"
         sodipodi:ry="9.0913725"
         d="m 383.85797,282.62595 c 0,5.02102 -4.07034,9.09137 -9.09137,9.09137 -5.02102,0 -9.09137,-4.07035 -9.09137,-9.09137 0,-5.02103 4.07035,-9.09138 9.09137,-9.09138 5.02103,0 9.09137,4.07035 9.09137,9.09138 z"
         transform="matrix(1,0,0,-1,3.0304578,695.03024)" />
      <path
         transform="matrix(1,0,0,-1,3.0304578,664.56619)"
         d="m 383.85797,282.62595 c 0,5.02102 -4.07034,9.09137 -9.09137,9.09137 -5.02102,0 -9.09137,-4.07035 -9.09137,-9.09137 0,-5.02103 4.07035,-9.09138 9.09137,-9.09138 5.02103,0 9.09137,4.07035 9.09137,9.09138 z"
         sodipodi:ry="9.0913725"
         sodipodi:rx="9.0913725"
         sodipodi:cy="282.62595"
         sodipodi:cx="374.7666"
         id="path3040-7"
         style="fill:#4d4d4d"
         sodipodi:type="arc" />
      <text
         sodipodi:linespacing="125%"
         id="text3131-5"
         y="322.02188"
         x="324.25897"
         style="font-size:40px;font-style:normal;font-weight:normal;line-height:125%;letter-spacing:0px;word-spacing:0px;fill:#e6e6e6;fill-opacity:1;stroke:none;font-family:Sans"
         xml:space="preserve"><tspan
           y="322.02188"
           x="324.25897"
           id="tspan3133-9"
           sodipodi:role="line" /></text>
      <text
         sodipodi:linespacing="125%"
         id="text3135-2"
         y="330.10312"
         x="333.35034"
         style="font-size:40px;font-style:normal;font-weight:normal;line-height:125%;letter-spacing:0px;word-spacing:0px;fill:#ececec;fill-opacity:1;stroke:none;font-family:Sans"
         xml:space="preserve"><tspan
           y="330.10312"
           x="333.35034"
           id="tspan3137-4"
           sodipodi:role="line" /></text>
      <text
         sodipodi:linespacing="125%"
         id="text3907-7"
         y="316.36218"
         x="329"
         style="font-size:24px;font-style:normal;font-weight:normal;line-height:125%;letter-spacing:0px;word-spacing:0px;fill:#ffffff;fill-opacity:1;stroke:none;font-family:Sans"
         xml:space="preserve"><tspan
           y="316.36218"
           x="329"
           id="tspan3909-7"
           sodipodi:role="line" /></text>
      <text
         sodipodi:linespacing="125%"
         id="text3911-5"
         y="357.36218"
         x="311"
         style="font-size:40px;font-style:normal;font-weight:normal;line-height:125%;letter-spacing:0px;word-spacing:0px;fill:#000000;fill-opacity:1;stroke:none;font-family:Sans"
         xml:space="preserve"><tspan
           style="font-size:24px;fill:#ececec"
           y="357.36218"
           x="311"
           id="tspan3913-1"
           sodipodi:role="line">SDA</tspan></text>
      <text
         transform="translate(311.08704,245.66747)"
         sodipodi:linespacing="125%"
         id="text3950"
         y="91.628052"
         x="14"
         style="font-size:40px;font-style:normal;font-weight:normal;line-height:125%;letter-spacing:0px;word-spacing:0px;fill:#000000;fill-opacity:1;stroke:none;font-family:Sans"
         xml:space="preserve"><tspan
           y="91.628052"
           x="14"
           id="tspan3952"
           sodipodi:role="line" /></text>
      <text
         xml:space="preserve"
         style="font-size:40px;font-style:normal;font-weight:normal;line-height:125%;letter-spacing:0px;word-spacing:0px;fill:#000000;fill-opacity:1;stroke:none;font-family:Sans"
         x="311"
         y="322.36218"
         id="text3954"
         sodipodi:linespacing="125%"><tspan
           sodipodi:role="line"
           id="tspan3956"
           x="311"
           y="322.36218"
           style="font-size:24px;fill:#ececec">SCL</tspan></text>
      <text
         sodipodi:linespacing="125%"
         id="text3958"
         y="391.36218"
         x="311"
         style="font-size:40px;font-style:normal;font-weight:normal;line-height:125%;letter-spacing:0px;word-spacing:0px;fill:#000000;fill-opacity:1;stroke:none;font-family:Sans"
         xml:space="preserve"><tspan
           style="font-size:24px;fill:#ececec"
           y="391.36218"
           x="311"
           id="tspan3960"
           sodipodi:role="line">GND</tspan></text>
      <text
         xml:space="preserve"
         style="font-size:40px;font-style:normal;font-weight:normal;line-height:125%;letter-spacing:0px;word-spacing:0px;fill:#000000;fill-opacity:1;stroke:none;font-family:Sans"
         x="311"
         y="428.36218"
         id="text3962"
         sodipodi:linespacing="125%"><tspan
           sodipodi:role="line"
           id="tspan3964"
           x="311"
           y="428.36218"
           style="font-size:24px;fill:#ececec">VDC</tspan></text>
      <text
         sodipodi:linespacing="125%"
         id="text3966"
         y="464.36218"
         x="311"
         style="font-size:40px;font-style:normal;font-weight:normal;line-height:125%;letter-spacing:0px;word-spacing:0px;fill:#000000;fill-opacity:1;stroke:none;font-family:Sans"
         xml:space="preserve"><tspan
           style="font-size:24px;fill:#ececec"
           y="464.36218"
           x="311"
           id="tspan3968"
           sodipodi:role="line">VIO</tspan></text>
      <rect
         y="297.29553"
         x="160.08704"
         height="181"
         width="82"
         id="rect4105"
         style="fill:#666666" />
    </g>
    <path
       style="fill:none;stroke:#0000ff;stroke-width:6;stroke-linecap:butt;stroke-linejoin:miter;stroke-miterlimit:4;stroke-opacity:1;stroke-dasharray:none"
       d="m 230.30303,88.725819 77.27273,0 57.57576,48.484851 268.18181,6.0606"
       id="path4569"
       inkscape:connector-curvature="0" />
    <path
       style="fill:none;stroke:#ff2020;stroke-width:6;stroke-linecap:butt;stroke-linejoin:miter;stroke-miterlimit:4;stroke-opacity:1;stroke-dasharray:none"
       d="m 228.78788,119.02885 81.81818,1.51515 60.60606,-13.63636 263.63636,4.54545"
       id="path5079"
       inkscape:connector-curvature="0" />
    <path
       style="fill:none;stroke:#202020;stroke-width:6;stroke-linecap:butt;stroke-linejoin:miter;stroke-miterlimit:4;stroke-opacity:1;stroke-dasharray:none"
       d="m 227.27273,146.30158 78.78788,0 68.18181,46.96969 259.09091,10.60606"
       id="path5081"
       inkscape:connector-curvature="0" />
    <path
       style="fill:none;stroke:#e8e8e8;stroke-width:6;stroke-linecap:butt;stroke-linejoin:miter;stroke-miterlimit:4;stroke-opacity:1;stroke-dasharray:none;marker-mid:none"
       d="m 225.75758,175.08946 81.81818,3.0303 98.48485,-109.090911 250,-6.060606 21.21212,19.69697"
       id="path5083"
       inkscape:connector-curvature="0" />
    <path
       style="fill:none;stroke:#a4a4a4;stroke-width:6;stroke-linecap:butt;stroke-linejoin:miter;stroke-miterlimit:4;stroke-opacity:1;stroke-dasharray:none"
       d="m 227.27273,209.93794 75.75757,3.0303 109.09091,-122.72727 222.72727,-6.060606"
       id="path5267"
       inkscape:connector-curvature="0" />
  </g>
</svg>
