<?xml version="1.0" encoding="UTF-8" standalone="no"?>
<!-- Created with Inkscape (http://www.inkscape.org/) -->

<svg
   xmlns:dc="http://purl.org/dc/elements/1.1/"
   xmlns:cc="http://creativecommons.org/ns#"
   xmlns:rdf="http://www.w3.org/1999/02/22-rdf-syntax-ns#"
   xmlns:svg="http://www.w3.org/2000/svg"
   xmlns="http://www.w3.org/2000/svg"
   xmlns:sodipodi="http://sodipodi.sourceforge.net/DTD/sodipodi-0.dtd"
   xmlns:inkscape="http://www.inkscape.org/namespaces/inkscape"
   width="166.97163"
   height="717.62805"
   id="svg2"
   version="1.1"
   inkscape:version="0.48.5 r10040"
   sodipodi:docname="pi_headers.svg">
  <defs
     id="defs4" />
  <sodipodi:namedview
     id="base"
     pagecolor="#ffffff"
     bordercolor="#666666"
     borderopacity="1.0"
     inkscape:pageopacity="0.0"
     inkscape:pageshadow="2"
     inkscape:zoom="1"
     inkscape:cx="-118.91449"
     inkscape:cy="658.95861"
     inkscape:document-units="px"
     inkscape:current-layer="layer1"
     showgrid="false"
     inkscape:window-width="1334"
     inkscape:window-height="960"
     inkscape:window-x="0"
     inkscape:window-y="0"
     inkscape:window-maximized="0"
     fit-margin-top="0"
     fit-margin-left="0"
     fit-margin-right="0"
     fit-margin-bottom="0" />
  <metadata
     id="metadata7">
    <rdf:RDF>
      <cc:Work
         rdf:about="">
        <dc:format>image/svg+xml</dc:format>
        <dc:type
           rdf:resource="http://purl.org/dc/dcmitype/StillImage" />
        <dc:title></dc:title>
      </cc:Work>
    </rdf:RDF>
  </metadata>
  <g
     inkscape:label="Layer 1"
     inkscape:groupmode="layer"
     id="layer1"
     transform="translate(-311.08704,-245.66747)">
    <rect
       style="fill:#008000"
       id="rect2989"
       width="166.97163"
       height="717.62805"
       x="311.08704"
       y="245.66747" />
    <rect
       style="fill:#000000"
       id="rect2995"
       width="110.10663"
       height="679.83264"
       x="340.42139"
       y="268.4838"
       ry="37.421982" />
    <path
       sodipodi:type="arc"
       style="fill:#ffff00"
       id="path2999"
       sodipodi:cx="374.7666"
       sodipodi:cy="282.62595"
       sodipodi:rx="9.0913725"
       sodipodi:ry="9.0913725"
       d="m 383.85797,282.62595 c 0,5.02102 -4.07034,9.09137 -9.09137,9.09137 -5.02102,0 -9.09137,-4.07035 -9.09137,-9.09137 0,-5.02103 4.07035,-9.09138 9.09137,-9.09138 5.02103,0 9.09137,4.07035 9.09137,9.09138 z"
       transform="matrix(1,0,0,-1,3.0304578,603.63809)" />
    <path
       transform="matrix(1,0,0,-1,3.0304578,634.10214)"
       d="m 383.85797,282.62595 c 0,5.02102 -4.07034,9.09137 -9.09137,9.09137 -5.02102,0 -9.09137,-4.07035 -9.09137,-9.09137 0,-5.02103 4.07035,-9.09138 9.09137,-9.09138 5.02103,0 9.09137,4.07035 9.09137,9.09138 z"
       sodipodi:ry="9.0913725"
       sodipodi:rx="9.0913725"
       sodipodi:cy="282.62595"
       sodipodi:cx="374.7666"
       id="path3034"
       style="fill:#ffff00"
       sodipodi:type="arc" />
    <path
       sodipodi:type="arc"
       style="fill:#ffff00"
       id="path3036"
       sodipodi:cx="374.7666"
       sodipodi:cy="282.62595"
       sodipodi:rx="9.0913725"
       sodipodi:ry="9.0913725"
       d="m 383.85797,282.62595 c 0,5.02102 -4.07034,9.09137 -9.09137,9.09137 -5.02102,0 -9.09137,-4.07035 -9.09137,-9.09137 0,-5.02103 4.07035,-9.09138 9.09137,-9.09138 5.02103,0 9.09137,4.07035 9.09137,9.09138 z"
       transform="matrix(1,0,0,-1,3.0304578,725.49429)" />
    <path
       transform="matrix(1,0,0,-1,3.0304578,695.03024)"
       d="m 383.85797,282.62595 c 0,5.02102 -4.07034,9.09137 -9.09137,9.09137 -5.02102,0 -9.09137,-4.07035 -9.09137,-9.09137 0,-5.02103 4.07035,-9.09138 9.09137,-9.09138 5.02103,0 9.09137,4.07035 9.09137,9.09138 z"
       sodipodi:ry="9.0913725"
       sodipodi:rx="9.0913725"
       sodipodi:cy="282.62595"
       sodipodi:cx="374.7666"
       id="path3038"
       style="fill:#ffff00"
       sodipodi:type="arc" />
    <path
       sodipodi:type="arc"
       style="fill:#ffff00"
       id="path3040"
       sodipodi:cx="374.7666"
       sodipodi:cy="282.62595"
       sodipodi:rx="9.0913725"
       sodipodi:ry="9.0913725"
       d="m 383.85797,282.62595 c 0,5.02102 -4.07034,9.09137 -9.09137,9.09137 -5.02102,0 -9.09137,-4.07035 -9.09137,-9.09137 0,-5.02103 4.07035,-9.09138 9.09137,-9.09138 5.02103,0 9.09137,4.07035 9.09137,9.09138 z"
       transform="matrix(1,0,0,-1,3.0304578,664.56619)" />
    <path
       transform="matrix(1,0,0,-1,3.0304578,755.95834)"
       d="m 383.85797,282.62595 c 0,5.02102 -4.07034,9.09137 -9.09137,9.09137 -5.02102,0 -9.09137,-4.07035 -9.09137,-9.09137 0,-5.02103 4.07035,-9.09138 9.09137,-9.09138 5.02103,0 9.09137,4.07035 9.09137,9.09138 z"
       sodipodi:ry="9.0913725"
       sodipodi:rx="9.0913725"
       sodipodi:cy="282.62595"
       sodipodi:cx="374.7666"
       id="path3042"
       style="fill:#ffff00"
       sodipodi:type="arc" />
    <path
       sodipodi:type="arc"
       style="fill:#ffff00"
       id="path3044"
       sodipodi:cx="374.7666"
       sodipodi:cy="282.62595"
       sodipodi:rx="9.0913725"
       sodipodi:ry="9.0913725"
       d="m 383.85797,282.62595 c 0,5.02102 -4.07034,9.09137 -9.09137,9.09137 -5.02102,0 -9.09137,-4.07035 -9.09137,-9.09137 0,-5.02103 4.07035,-9.09138 9.09137,-9.09138 5.02103,0 9.09137,4.07035 9.09137,9.09138 z"
       transform="matrix(1,0,0,-1,3.0304578,786.42239)" />
    <path
       transform="matrix(1,0,0,-1,3.0304578,877.81454)"
       d="m 383.85797,282.62595 c 0,5.02102 -4.07034,9.09137 -9.09137,9.09137 -5.02102,0 -9.09137,-4.07035 -9.09137,-9.09137 0,-5.02103 4.07035,-9.09138 9.09137,-9.09138 5.02103,0 9.09137,4.07035 9.09137,9.09138 z"
       sodipodi:ry="9.0913725"
       sodipodi:rx="9.0913725"
       sodipodi:cy="282.62595"
       sodipodi:cx="374.7666"
       id="path3046"
       style="fill:#ffff00"
       sodipodi:type="arc" />
    <path
       sodipodi:type="arc"
       style="fill:#ffff00"
       id="path3048"
       sodipodi:cx="374.7666"
       sodipodi:cy="282.62595"
       sodipodi:rx="9.0913725"
       sodipodi:ry="9.0913725"
       d="m 383.85797,282.62595 c 0,5.02102 -4.07034,9.09137 -9.09137,9.09137 -5.02102,0 -9.09137,-4.07035 -9.09137,-9.09137 0,-5.02103 4.07035,-9.09138 9.09137,-9.09138 5.02103,0 9.09137,4.07035 9.09137,9.09138 z"
       transform="matrix(1,0,0,-1,3.0304578,847.35049)" />
    <path
       transform="matrix(1,0,0,-1,3.0304578,816.88644)"
       d="m 383.85797,282.62595 c 0,5.02102 -4.07034,9.09137 -9.09137,9.09137 -5.02102,0 -9.09137,-4.07035 -9.09137,-9.09137 0,-5.02103 4.07035,-9.09138 9.09137,-9.09138 5.02103,0 9.09137,4.07035 9.09137,9.09138 z"
       sodipodi:ry="9.0913725"
       sodipodi:rx="9.0913725"
       sodipodi:cy="282.62595"
       sodipodi:cx="374.7666"
       id="path3050"
       style="fill:#ffff00"
       sodipodi:type="arc" />
    <path
       sodipodi:type="arc"
       style="fill:#ffff00"
       id="path3052"
       sodipodi:cx="374.7666"
       sodipodi:cy="282.62595"
       sodipodi:rx="9.0913725"
       sodipodi:ry="9.0913725"
       d="m 383.85797,282.62595 c 0,5.02102 -4.07034,9.09137 -9.09137,9.09137 -5.02102,0 -9.09137,-4.07035 -9.09137,-9.09137 0,-5.02103 4.07035,-9.09138 9.09137,-9.09138 5.02103,0 9.09137,4.07035 9.09137,9.09138 z"
       transform="matrix(1,0,0,-1,3.0304578,908.27859)" />
    <path
       transform="matrix(1,0,0,-1,3.0304578,938.74264)"
       d="m 383.85797,282.62595 c 0,5.02102 -4.07034,9.09137 -9.09137,9.09137 -5.02102,0 -9.09137,-4.07035 -9.09137,-9.09137 0,-5.02103 4.07035,-9.09138 9.09137,-9.09138 5.02103,0 9.09137,4.07035 9.09137,9.09138 z"
       sodipodi:ry="9.0913725"
       sodipodi:rx="9.0913725"
       sodipodi:cy="282.62595"
       sodipodi:cx="374.7666"
       id="path3054"
       style="fill:#ffff00"
       sodipodi:type="arc" />
    <path
       sodipodi:type="arc"
       style="fill:#ffff00"
       id="path3056"
       sodipodi:cx="374.7666"
       sodipodi:cy="282.62595"
       sodipodi:rx="9.0913725"
       sodipodi:ry="9.0913725"
       d="m 383.85797,282.62595 c 0,5.02102 -4.07034,9.09137 -9.09137,9.09137 -5.02102,0 -9.09137,-4.07035 -9.09137,-9.09137 0,-5.02103 4.07035,-9.09138 9.09137,-9.09138 5.02103,0 9.09137,4.07035 9.09137,9.09138 z"
       transform="matrix(1,0,0,-1,3.0304578,1030.1348)" />
    <path
       transform="matrix(1,0,0,-1,3.0304578,999.67074)"
       d="m 383.85797,282.62595 c 0,5.02102 -4.07034,9.09137 -9.09137,9.09137 -5.02102,0 -9.09137,-4.07035 -9.09137,-9.09137 0,-5.02103 4.07035,-9.09138 9.09137,-9.09138 5.02103,0 9.09137,4.07035 9.09137,9.09138 z"
       sodipodi:ry="9.0913725"
       sodipodi:rx="9.0913725"
       sodipodi:cy="282.62595"
       sodipodi:cx="374.7666"
       id="path3058"
       style="fill:#ffff00"
       sodipodi:type="arc" />
    <path
       sodipodi:type="arc"
       style="fill:#ffff00"
       id="path3060"
       sodipodi:cx="374.7666"
       sodipodi:cy="282.62595"
       sodipodi:rx="9.0913725"
       sodipodi:ry="9.0913725"
       d="m 383.85797,282.62595 c 0,5.02102 -4.07034,9.09137 -9.09137,9.09137 -5.02102,0 -9.09137,-4.07035 -9.09137,-9.09137 0,-5.02103 4.07035,-9.09138 9.09137,-9.09138 5.02103,0 9.09137,4.07035 9.09137,9.09138 z"
       transform="matrix(1,0,0,-1,3.0304578,969.20669)" />
    <path
       transform="matrix(1,0,0,-1,3.0304578,1060.5988)"
       d="m 383.85797,282.62595 c 0,5.02102 -4.07034,9.09137 -9.09137,9.09137 -5.02102,0 -9.09137,-4.07035 -9.09137,-9.09137 0,-5.02103 4.07035,-9.09138 9.09137,-9.09138 5.02103,0 9.09137,4.07035 9.09137,9.09138 z"
       sodipodi:ry="9.0913725"
       sodipodi:rx="9.0913725"
       sodipodi:cy="282.62595"
       sodipodi:cx="374.7666"
       id="path3062"
       style="fill:#ffff00"
       sodipodi:type="arc" />
    <path
       sodipodi:type="arc"
       style="fill:#ffff00"
       id="path3064"
       sodipodi:cx="374.7666"
       sodipodi:cy="282.62595"
       sodipodi:rx="9.0913725"
       sodipodi:ry="9.0913725"
       d="m 383.85797,282.62595 c 0,5.02102 -4.07034,9.09137 -9.09137,9.09137 -5.02102,0 -9.09137,-4.07035 -9.09137,-9.09137 0,-5.02103 4.07035,-9.09138 9.09137,-9.09138 5.02103,0 9.09137,4.07035 9.09137,9.09138 z"
       transform="matrix(1,0,0,-1,3.0304578,1091.0629)" />
    <path
       transform="matrix(1,0,0,-1,3.0304578,1182.4551)"
       d="m 383.85797,282.62595 c 0,5.02102 -4.07034,9.09137 -9.09137,9.09137 -5.02102,0 -9.09137,-4.07035 -9.09137,-9.09137 0,-5.02103 4.07035,-9.09138 9.09137,-9.09138 5.02103,0 9.09137,4.07035 9.09137,9.09138 z"
       sodipodi:ry="9.0913725"
       sodipodi:rx="9.0913725"
       sodipodi:cy="282.62595"
       sodipodi:cx="374.7666"
       id="path3066"
       style="fill:#ffff00"
       sodipodi:type="arc" />
    <path
       sodipodi:type="arc"
       style="fill:#ffff00"
       id="path3068"
       sodipodi:cx="374.7666"
       sodipodi:cy="282.62595"
       sodipodi:rx="9.0913725"
       sodipodi:ry="9.0913725"
       d="m 383.85797,282.62595 c 0,5.02102 -4.07034,9.09137 -9.09137,9.09137 -5.02102,0 -9.09137,-4.07035 -9.09137,-9.09137 0,-5.02103 4.07035,-9.09138 9.09137,-9.09138 5.02103,0 9.09137,4.07035 9.09137,9.09138 z"
       transform="matrix(1,0,0,-1,3.0304578,1151.991)" />
    <path
       transform="matrix(1,0,0,-1,3.0304578,1121.527)"
       d="m 383.85797,282.62595 c 0,5.02102 -4.07034,9.09137 -9.09137,9.09137 -5.02102,0 -9.09137,-4.07035 -9.09137,-9.09137 0,-5.02103 4.07035,-9.09138 9.09137,-9.09138 5.02103,0 9.09137,4.07035 9.09137,9.09138 z"
       sodipodi:ry="9.0913725"
       sodipodi:rx="9.0913725"
       sodipodi:cy="282.62595"
       sodipodi:cx="374.7666"
       id="path3070"
       style="fill:#ffff00"
       sodipodi:type="arc" />
    <path
       transform="matrix(1,0,0,-1,44.446712,603.63809)"
       d="m 383.85797,282.62595 c 0,5.02102 -4.07034,9.09137 -9.09137,9.09137 -5.02102,0 -9.09137,-4.07035 -9.09137,-9.09137 0,-5.02103 4.07035,-9.09138 9.09137,-9.09138 5.02103,0 9.09137,4.07035 9.09137,9.09138 z"
       sodipodi:ry="9.0913725"
       sodipodi:rx="9.0913725"
       sodipodi:cy="282.62595"
       sodipodi:cx="374.7666"
       id="path3072"
       style="fill:#ffff00"
       sodipodi:type="arc" />
    <path
       sodipodi:type="arc"
       style="fill:#ffff00"
       id="path3074"
       sodipodi:cx="374.7666"
       sodipodi:cy="282.62595"
       sodipodi:rx="9.0913725"
       sodipodi:ry="9.0913725"
       d="m 383.85797,282.62595 c 0,5.02102 -4.07034,9.09137 -9.09137,9.09137 -5.02102,0 -9.09137,-4.07035 -9.09137,-9.09137 0,-5.02103 4.07035,-9.09138 9.09137,-9.09138 5.02103,0 9.09137,4.07035 9.09137,9.09138 z"
       transform="matrix(1,0,0,-1,44.446712,634.10214)" />
    <path
       transform="matrix(1,0,0,-1,44.446712,725.49429)"
       d="m 383.85797,282.62595 c 0,5.02102 -4.07034,9.09137 -9.09137,9.09137 -5.02102,0 -9.09137,-4.07035 -9.09137,-9.09137 0,-5.02103 4.07035,-9.09138 9.09137,-9.09138 5.02103,0 9.09137,4.07035 9.09137,9.09138 z"
       sodipodi:ry="9.0913725"
       sodipodi:rx="9.0913725"
       sodipodi:cy="282.62595"
       sodipodi:cx="374.7666"
       id="path3076"
       style="fill:#ffff00"
       sodipodi:type="arc" />
    <path
       sodipodi:type="arc"
       style="fill:#ffff00"
       id="path3078"
       sodipodi:cx="374.7666"
       sodipodi:cy="282.62595"
       sodipodi:rx="9.0913725"
       sodipodi:ry="9.0913725"
       d="m 383.85797,282.62595 c 0,5.02102 -4.07034,9.09137 -9.09137,9.09137 -5.02102,0 -9.09137,-4.07035 -9.09137,-9.09137 0,-5.02103 4.07035,-9.09138 9.09137,-9.09138 5.02103,0 9.09137,4.07035 9.09137,9.09138 z"
       transform="matrix(1,0,0,-1,44.446712,695.03024)" />
    <path
       transform="matrix(1,0,0,-1,44.446712,664.56619)"
       d="m 383.85797,282.62595 c 0,5.02102 -4.07034,9.09137 -9.09137,9.09137 -5.02102,0 -9.09137,-4.07035 -9.09137,-9.09137 0,-5.02103 4.07035,-9.09138 9.09137,-9.09138 5.02103,0 9.09137,4.07035 9.09137,9.09138 z"
       sodipodi:ry="9.0913725"
       sodipodi:rx="9.0913725"
       sodipodi:cy="282.62595"
       sodipodi:cx="374.7666"
       id="path3080"
       style="fill:#ffff00"
       sodipodi:type="arc" />
    <path
       sodipodi:type="arc"
       style="fill:#ffff00"
       id="path3082"
       sodipodi:cx="374.7666"
       sodipodi:cy="282.62595"
       sodipodi:rx="9.0913725"
       sodipodi:ry="9.0913725"
       d="m 383.85797,282.62595 c 0,5.02102 -4.07034,9.09137 -9.09137,9.09137 -5.02102,0 -9.09137,-4.07035 -9.09137,-9.09137 0,-5.02103 4.07035,-9.09138 9.09137,-9.09138 5.02103,0 9.09137,4.07035 9.09137,9.09138 z"
       transform="matrix(1,0,0,-1,44.446712,755.95834)" />
    <path
       transform="matrix(1,0,0,-1,44.446712,786.42239)"
       d="m 383.85797,282.62595 c 0,5.02102 -4.07034,9.09137 -9.09137,9.09137 -5.02102,0 -9.09137,-4.07035 -9.09137,-9.09137 0,-5.02103 4.07035,-9.09138 9.09137,-9.09138 5.02103,0 9.09137,4.07035 9.09137,9.09138 z"
       sodipodi:ry="9.0913725"
       sodipodi:rx="9.0913725"
       sodipodi:cy="282.62595"
       sodipodi:cx="374.7666"
       id="path3084"
       style="fill:#ffff00"
       sodipodi:type="arc" />
    <path
       sodipodi:type="arc"
       style="fill:#ffff00"
       id="path3086"
       sodipodi:cx="374.7666"
       sodipodi:cy="282.62595"
       sodipodi:rx="9.0913725"
       sodipodi:ry="9.0913725"
       d="m 383.85797,282.62595 c 0,5.02102 -4.07034,9.09137 -9.09137,9.09137 -5.02102,0 -9.09137,-4.07035 -9.09137,-9.09137 0,-5.02103 4.07035,-9.09138 9.09137,-9.09138 5.02103,0 9.09137,4.07035 9.09137,9.09138 z"
       transform="matrix(1,0,0,-1,44.446712,877.81454)" />
    <path
       transform="matrix(1,0,0,-1,44.446712,847.35049)"
       d="m 383.85797,282.62595 c 0,5.02102 -4.07034,9.09137 -9.09137,9.09137 -5.02102,0 -9.09137,-4.07035 -9.09137,-9.09137 0,-5.02103 4.07035,-9.09138 9.09137,-9.09138 5.02103,0 9.09137,4.07035 9.09137,9.09138 z"
       sodipodi:ry="9.0913725"
       sodipodi:rx="9.0913725"
       sodipodi:cy="282.62595"
       sodipodi:cx="374.7666"
       id="path3088"
       style="fill:#ffff00"
       sodipodi:type="arc" />
    <path
       sodipodi:type="arc"
       style="fill:#ffff00"
       id="path3090"
       sodipodi:cx="374.7666"
       sodipodi:cy="282.62595"
       sodipodi:rx="9.0913725"
       sodipodi:ry="9.0913725"
       d="m 383.85797,282.62595 c 0,5.02102 -4.07034,9.09137 -9.09137,9.09137 -5.02102,0 -9.09137,-4.07035 -9.09137,-9.09137 0,-5.02103 4.07035,-9.09138 9.09137,-9.09138 5.02103,0 9.09137,4.07035 9.09137,9.09138 z"
       transform="matrix(1,0,0,-1,44.446712,816.88644)" />
    <path
       transform="matrix(1,0,0,-1,44.446712,908.27859)"
       d="m 383.85797,282.62595 c 0,5.02102 -4.07034,9.09137 -9.09137,9.09137 -5.02102,0 -9.09137,-4.07035 -9.09137,-9.09137 0,-5.02103 4.07035,-9.09138 9.09137,-9.09138 5.02103,0 9.09137,4.07035 9.09137,9.09138 z"
       sodipodi:ry="9.0913725"
       sodipodi:rx="9.0913725"
       sodipodi:cy="282.62595"
       sodipodi:cx="374.7666"
       id="path3092"
       style="fill:#ffff00"
       sodipodi:type="arc" />
    <path
       sodipodi:type="arc"
       style="fill:#ffff00"
       id="path3094"
       sodipodi:cx="374.7666"
       sodipodi:cy="282.62595"
       sodipodi:rx="9.0913725"
       sodipodi:ry="9.0913725"
       d="m 383.85797,282.62595 c 0,5.02102 -4.07034,9.09137 -9.09137,9.09137 -5.02102,0 -9.09137,-4.07035 -9.09137,-9.09137 0,-5.02103 4.07035,-9.09138 9.09137,-9.09138 5.02103,0 9.09137,4.07035 9.09137,9.09138 z"
       transform="matrix(1,0,0,-1,44.446712,938.74264)" />
    <path
       transform="matrix(1,0,0,-1,44.446712,1030.1348)"
       d="m 383.85797,282.62595 c 0,5.02102 -4.07034,9.09137 -9.09137,9.09137 -5.02102,0 -9.09137,-4.07035 -9.09137,-9.09137 0,-5.02103 4.07035,-9.09138 9.09137,-9.09138 5.02103,0 9.09137,4.07035 9.09137,9.09138 z"
       sodipodi:ry="9.0913725"
       sodipodi:rx="9.0913725"
       sodipodi:cy="282.62595"
       sodipodi:cx="374.7666"
       id="path3096"
       style="fill:#ffff00"
       sodipodi:type="arc" />
    <path
       sodipodi:type="arc"
       style="fill:#ffff00"
       id="path3098"
       sodipodi:cx="374.7666"
       sodipodi:cy="282.62595"
       sodipodi:rx="9.0913725"
       sodipodi:ry="9.0913725"
       d="m 383.85797,282.62595 c 0,5.02102 -4.07034,9.09137 -9.09137,9.09137 -5.02102,0 -9.09137,-4.07035 -9.09137,-9.09137 0,-5.02103 4.07035,-9.09138 9.09137,-9.09138 5.02103,0 9.09137,4.07035 9.09137,9.09138 z"
       transform="matrix(1,0,0,-1,44.446712,999.67074)" />
    <path
       transform="matrix(1,0,0,-1,44.446712,969.20669)"
       d="m 383.85797,282.62595 c 0,5.02102 -4.07034,9.09137 -9.09137,9.09137 -5.02102,0 -9.09137,-4.07035 -9.09137,-9.09137 0,-5.02103 4.07035,-9.09138 9.09137,-9.09138 5.02103,0 9.09137,4.07035 9.09137,9.09138 z"
       sodipodi:ry="9.0913725"
       sodipodi:rx="9.0913725"
       sodipodi:cy="282.62595"
       sodipodi:cx="374.7666"
       id="path3100"
       style="fill:#ffff00"
       sodipodi:type="arc" />
    <path
       sodipodi:type="arc"
       style="fill:#ffff00"
       id="path3102"
       sodipodi:cx="374.7666"
       sodipodi:cy="282.62595"
       sodipodi:rx="9.0913725"
       sodipodi:ry="9.0913725"
       d="m 383.85797,282.62595 c 0,5.02102 -4.07034,9.09137 -9.09137,9.09137 -5.02102,0 -9.09137,-4.07035 -9.09137,-9.09137 0,-5.02103 4.07035,-9.09138 9.09137,-9.09138 5.02103,0 9.09137,4.07035 9.09137,9.09138 z"
       transform="matrix(1,0,0,-1,44.446712,1060.5988)" />
    <path
       transform="matrix(1,0,0,-1,44.446712,1091.0629)"
       d="m 383.85797,282.62595 c 0,5.02102 -4.07034,9.09137 -9.09137,9.09137 -5.02102,0 -9.09137,-4.07035 -9.09137,-9.09137 0,-5.02103 4.07035,-9.09138 9.09137,-9.09138 5.02103,0 9.09137,4.07035 9.09137,9.09138 z"
       sodipodi:ry="9.0913725"
       sodipodi:rx="9.0913725"
       sodipodi:cy="282.62595"
       sodipodi:cx="374.7666"
       id="path3104"
       style="fill:#ffff00"
       sodipodi:type="arc" />
    <path
       sodipodi:type="arc"
       style="fill:#ffff00"
       id="path3106"
       sodipodi:cx="374.7666"
       sodipodi:cy="282.62595"
       sodipodi:rx="9.0913725"
       sodipodi:ry="9.0913725"
       d="m 383.85797,282.62595 c 0,5.02102 -4.07034,9.09137 -9.09137,9.09137 -5.02102,0 -9.09137,-4.07035 -9.09137,-9.09137 0,-5.02103 4.07035,-9.09138 9.09137,-9.09138 5.02103,0 9.09137,4.07035 9.09137,9.09138 z"
       transform="matrix(1,0,0,-1,44.446712,1182.4551)" />
    <path
       transform="matrix(1,0,0,-1,44.446712,1151.991)"
       d="m 383.85797,282.62595 c 0,5.02102 -4.07034,9.09137 -9.09137,9.09137 -5.02102,0 -9.09137,-4.07035 -9.09137,-9.09137 0,-5.02103 4.07035,-9.09138 9.09137,-9.09138 5.02103,0 9.09137,4.07035 9.09137,9.09138 z"
       sodipodi:ry="9.0913725"
       sodipodi:rx="9.0913725"
       sodipodi:cy="282.62595"
       sodipodi:cx="374.7666"
       id="path3108"
       style="fill:#ffff00"
       sodipodi:type="arc" />
    <path
       sodipodi:type="arc"
       style="fill:#ffff00"
       id="path3110"
       sodipodi:cx="374.7666"
       sodipodi:cy="282.62595"
       sodipodi:rx="9.0913725"
       sodipodi:ry="9.0913725"
       d="m 383.85797,282.62595 c 0,5.02102 -4.07034,9.09137 -9.09137,9.09137 -5.02102,0 -9.09137,-4.07035 -9.09137,-9.09137 0,-5.02103 4.07035,-9.09138 9.09137,-9.09138 5.02103,0 9.09137,4.07035 9.09137,9.09138 z"
       transform="matrix(1,0,0,-1,44.446712,1121.527)" />
    <text
       xml:space="preserve"
       style="font-size:40px;font-style:normal;font-weight:normal;line-height:125%;letter-spacing:0px;word-spacing:0px;fill:#e6e6e6;fill-opacity:1;stroke:none;font-family:Sans"
       x="324.25897"
       y="322.02188"
       id="text3131"
       sodipodi:linespacing="125%"><tspan
         sodipodi:role="line"
         id="tspan3133"
         x="324.25897"
         y="322.02188"></tspan></text>
    <text
       xml:space="preserve"
       style="font-size:40px;font-style:normal;font-weight:normal;line-height:125%;letter-spacing:0px;word-spacing:0px;fill:#ececec;fill-opacity:1;stroke:none;font-family:Sans"
       x="333.35034"
       y="330.10312"
       id="text3135"
       sodipodi:linespacing="125%"><tspan
         sodipodi:role="line"
         id="tspan3137"
         x="333.35034"
         y="330.10312"></tspan></text>
    <text
       xml:space="preserve"
       style="font-size:24px;font-style:normal;font-weight:normal;line-height:125%;letter-spacing:0px;word-spacing:0px;fill:#ffffff;fill-opacity:1;stroke:none;font-family:Sans"
       x="329"
       y="316.36218"
       id="text3907"
       sodipodi:linespacing="125%"><tspan
         sodipodi:role="line"
         id="tspan3909"
         x="329"
         y="316.36218"></tspan></text>
    <text
       xml:space="preserve"
       style="font-size:40px;font-style:normal;font-weight:normal;line-height:125%;letter-spacing:0px;word-spacing:0px;fill:#000000;fill-opacity:1;stroke:none;font-family:Sans"
       x="349"
       y="321.36218"
       id="text3911"
       sodipodi:linespacing="125%"><tspan
         sodipodi:role="line"
         id="tspan3913"
         x="349"
         y="321.36218"
         style="font-size:24px;fill:#ececec">1</tspan></text>
    <text
       sodipodi:linespacing="125%"
       id="text3915"
       y="924.36218"
       x="426"
       style="font-size:40px;font-style:normal;font-weight:normal;line-height:125%;letter-spacing:0px;word-spacing:0px;fill:#000000;fill-opacity:1;stroke:none;font-family:Sans"
       xml:space="preserve"><tspan
         style="font-size:24px;fill:#ececec"
         y="924.36218"
         x="426"
         id="tspan3917"
         sodipodi:role="line">40</tspan></text>
  </g>
</svg>
